<svg xmlns="http://www.w3.org/2000/svg" viewBox="0 0 600 600" role="img" aria-labelledby="title">
  <title id="title">Step 3 for drawing a very simple happy donut</title>
  <rect width="600" height="600" rx="36" fill="#FFFEF7"/>
  <g fill="none" stroke="#2C3642" stroke-width="11" stroke-linecap="round" stroke-linejoin="round">
    <circle cx="300" cy="300" r="210"/>
    <circle cx="300" cy="268" r="76"/><path d="M102 314c35 39 73 34 105 5 36 42 77 39 108 2 36 40 75 38 108 1 27 29 56 34 85 10"/>
    <g stroke="#E2528C" stroke-dasharray="18 12"><circle cx="250" cy="392" r="9" fill="#2C3642"/><circle cx="350" cy="392" r="9" fill="#2C3642"/><path d="M260 427c24 22 56 22 80 0M160 198l24 18m39-62 13 27m147-26-17 27m65 44-29 9"/></g>
  </g>
</svg>
