<svg xmlns="http://www.w3.org/2000/svg" viewBox="0 0 256 256" role="img" aria-labelledby="title desc">
  <title id="title">Lumilo resting</title>
  <desc id="desc">A round amber lantern-star friend resting with closed eyes.</desc>
  <defs>
    <linearGradient id="body" x1="0" y1="0" x2="0" y2="1">
      <stop offset="0" stop-color="#FFD783"/>
      <stop offset="1" stop-color="#F4A83B"/>
    </linearGradient>
    <filter id="shadow" x="-30%" y="-30%" width="160%" height="170%">
      <feDropShadow dx="0" dy="8" stdDeviation="7" flood-color="#5B4674" flood-opacity=".2"/>
    </filter>
  </defs>
  <g filter="url(#shadow)">
    <path d="M128 18 141 43 169 47 149 67 154 95 128 82 102 95 107 67 87 47 115 43Z" fill="#FFE38E" stroke="#D79431" stroke-width="5" stroke-linejoin="round"/>
    <path d="M68 116c-18 3-30 16-32 35-2 13 4 24 16 26 14 2 25-8 30-24Z" fill="#F0A33A" stroke="#C57C2B" stroke-width="5"/>
    <path d="M188 116c18 3 30 16 32 35 2 13-4 24-16 26-14 2-25-8-30-24Z" fill="#F0A33A" stroke="#C57C2B" stroke-width="5"/>
    <rect x="61" y="76" width="134" height="134" rx="59" fill="url(#body)" stroke="#C57C2B" stroke-width="6"/>
    <path d="M94 83c-9 32-9 81 0 115M128 79v125M162 83c9 32 9 81 0 115" fill="none" stroke="#D98D2E" stroke-width="4" stroke-linecap="round" opacity=".55"/>
    <ellipse cx="91" cy="210" rx="26" ry="17" fill="#D98D2E" stroke="#B96F26" stroke-width="5"/>
    <ellipse cx="165" cy="210" rx="26" ry="17" fill="#D98D2E" stroke="#B96F26" stroke-width="5"/>
    <path d="M91 132q12 10 24 0M141 132q12 10 24 0" fill="none" stroke="#4B3B43" stroke-width="7" stroke-linecap="round"/>
    <path d="M113 158q15 10 30 0" fill="none" stroke="#6E4435" stroke-width="6" stroke-linecap="round"/>
    <circle cx="84" cy="155" r="8" fill="#FFF2B8"/>
  </g>
</svg>
