<svg xmlns="http://www.w3.org/2000/svg" width="1920" height="1240" viewBox="0 0 1920 1240" font-family="'Plus Jakarta Sans','Segoe UI',system-ui,sans-serif">
  <defs>
    <radialGradient id="desk" cx="50%" cy="40%" r="75%"><stop offset="0" stop-color="#181222"/><stop offset="1" stop-color="#0C0913"/></radialGradient>
    <linearGradient id="mint" x1="0" y1="0" x2="1" y2="1"><stop offset="0" stop-color="#3DD9A9"/><stop offset="1" stop-color="#2BB68C"/></linearGradient>
    <linearGradient id="sky" x1="0" y1="0" x2="1" y2="1"><stop offset="0" stop-color="#5DAEFF"/><stop offset="1" stop-color="#3D8BE0"/></linearGradient>
    <linearGradient id="stage" x1="0" y1="0" x2="0" y2="1"><stop offset="0" stop-color="#0F172A"/><stop offset="1" stop-color="#1E293B"/></linearGradient>
    <filter id="win" x="-30%" y="-30%" width="160%" height="160%"><feDropShadow dx="0" dy="18" stdDeviation="26" flood-color="#000" flood-opacity="0.6"/></filter>
    <filter id="bdg" x="-50%" y="-50%" width="200%" height="200%"><feDropShadow dx="0" dy="2" stdDeviation="3" flood-color="#000" flood-opacity="0.5"/></filter>
    <!-- modern line icons (24x24, currentColor stroke) -->
    <symbol id="ic-chat" viewBox="0 0 24 24"><path d="M5 5h14a2 2 0 0 1 2 2v8a2 2 0 0 1-2 2h-8l-4 4v-4H5a2 2 0 0 1-2-2V7a2 2 0 0 1 2-2z" fill="none" stroke="currentColor" stroke-width="2" stroke-linejoin="round"/></symbol>
    <symbol id="ic-code" viewBox="0 0 24 24"><path d="M9 8l-4 4 4 4M15 8l4 4-4 4" fill="none" stroke="currentColor" stroke-width="2" stroke-linecap="round" stroke-linejoin="round"/></symbol>
    <symbol id="ic-game" viewBox="0 0 24 24"><path d="M7 9h10a5 5 0 0 1 4.5 7.2c-.8 1.6-3 1.8-4.2.5L16 15H8l-1.3 1.7c-1.2 1.3-3.4 1.1-4.2-.5A5 5 0 0 1 7 9z" fill="none" stroke="currentColor" stroke-width="2" stroke-linejoin="round"/><path d="M6.5 12.5h2M7.5 11.5v2" stroke="currentColor" stroke-width="2" stroke-linecap="round"/><circle cx="15.5" cy="11.8" r="1" fill="currentColor"/><circle cx="17.5" cy="13.6" r="1" fill="currentColor"/></symbol>
    <symbol id="ic-min" viewBox="0 0 24 24"><path d="M6 12h12" fill="none" stroke="currentColor" stroke-width="2" stroke-linecap="round"/></symbol>
    <symbol id="ic-max" viewBox="0 0 24 24"><rect x="6" y="6" width="12" height="12" rx="2" fill="none" stroke="currentColor" stroke-width="2"/></symbol>
    <symbol id="ic-close" viewBox="0 0 24 24"><path d="M7 7l10 10M17 7L7 17" fill="none" stroke="currentColor" stroke-width="2" stroke-linecap="round"/></symbol>
    <symbol id="ic-play" viewBox="0 0 24 24"><path d="M8 6l10 6-10 6z" fill="currentColor"/></symbol>
    <symbol id="ic-refresh" viewBox="0 0 24 24"><path d="M20 11a8 8 0 1 0-1.5 5M20 5v6h-6" fill="none" stroke="currentColor" stroke-width="2" stroke-linecap="round" stroke-linejoin="round"/></symbol>
    <symbol id="ic-sound" viewBox="0 0 24 24"><path d="M5 9v6h4l5 4V5L9 9H5z" fill="none" stroke="currentColor" stroke-width="2" stroke-linejoin="round"/><path d="M17 9a4 4 0 0 1 0 6" fill="none" stroke="currentColor" stroke-width="2" stroke-linecap="round"/></symbol>
    <symbol id="ic-device" viewBox="0 0 24 24"><rect x="8" y="3" width="8" height="18" rx="2" fill="none" stroke="currentColor" stroke-width="2"/></symbol>
    <symbol id="ic-term" viewBox="0 0 24 24"><rect x="3" y="5" width="18" height="14" rx="2" fill="none" stroke="currentColor" stroke-width="2"/><path d="M7 10l3 2-3 2M13 14h4" stroke="currentColor" stroke-width="2" fill="none" stroke-linecap="round" stroke-linejoin="round"/></symbol>
    <symbol id="ic-grid" viewBox="0 0 24 24"><rect x="4" y="4" width="7" height="7" rx="1.5" fill="none" stroke="currentColor" stroke-width="2"/><rect x="13" y="4" width="7" height="7" rx="1.5" fill="none" stroke="currentColor" stroke-width="2"/><rect x="4" y="13" width="7" height="7" rx="1.5" fill="none" stroke="currentColor" stroke-width="2"/><rect x="13" y="13" width="7" height="7" rx="1.5" fill="none" stroke="currentColor" stroke-width="2"/></symbol>
    <symbol id="ic-split" viewBox="0 0 24 24"><rect x="3" y="5" width="18" height="14" rx="2" fill="none" stroke="currentColor" stroke-width="2"/><path d="M14 5v14" stroke="currentColor" stroke-width="2"/></symbol>
    <symbol id="ic-folder" viewBox="0 0 24 24"><path d="M3 7a2 2 0 0 1 2-2h4l2 2h8a2 2 0 0 1 2 2v8a2 2 0 0 1-2 2H5a2 2 0 0 1-2-2V7z" fill="none" stroke="currentColor" stroke-width="2" stroke-linejoin="round"/></symbol>
    <symbol id="ic-file" viewBox="0 0 24 24"><path d="M6 3h8l4 4v14a0 0 0 0 1 0 0H6a0 0 0 0 1 0 0V3z" fill="none" stroke="currentColor" stroke-width="2" stroke-linejoin="round"/><path d="M14 3v4h4" fill="none" stroke="currentColor" stroke-width="2" stroke-linejoin="round"/></symbol>
  </defs>

  <!-- desktop -->
  <rect x="0" y="0" width="1920" height="1000" fill="url(#desk)"/>

  <!-- desktop shortcut icons (top-left) -->
  <g>
    <g transform="translate(24,40)"><rect width="84" height="84" rx="20" fill="#242133" stroke="#5DAEFF" stroke-opacity="0.5"/><use href="#ic-chat" x="26" y="26" width="32" height="32" color="#5DAEFF"/></g>
    <text x="66" y="148" text-anchor="middle" font-size="13" font-weight="700" fill="#B7B0C6">Chat</text>
    <g transform="translate(24,168)"><rect width="84" height="84" rx="20" fill="#242133" stroke="#3DD9A9" stroke-opacity="0.5"/><use href="#ic-code" x="26" y="26" width="32" height="32" color="#3DD9A9"/></g>
    <text x="66" y="276" text-anchor="middle" font-size="13" font-weight="700" fill="#B7B0C6">Code</text>
    <g transform="translate(24,296)"><rect width="84" height="84" rx="20" fill="#242133" stroke="#FF7A66" stroke-opacity="0.5"/><use href="#ic-game" x="26" y="26" width="32" height="32" color="#FF7A66"/></g>
    <text x="66" y="404" text-anchor="middle" font-size="13" font-weight="700" fill="#B7B0C6">Runner</text>
  </g>

  <!-- ===== Code Editor window (back, left-bottom, wide) ===== -->
  <g filter="url(#win)"><rect x="150" y="360" width="760" height="556" rx="16" fill="#242133" stroke="#46415C" stroke-width="1.5"/></g>
  <path d="M150 376a16 16 0 0 1 16-16h728a16 16 0 0 1 16 16v30H150z" fill="#2E2A40"/>
  <use href="#ic-code" x="170" y="368" width="22" height="22" color="#8FB7E8"/>
  <text x="200" y="384" font-size="15" font-weight="700" fill="#E7E2F0">Code Editor</text>
  <use href="#ic-min" x="820" y="368" width="22" height="22" color="#9B94AC"/><use href="#ic-max" x="846" y="368" width="22" height="22" color="#9B94AC"/><use href="#ic-close" x="872" y="368" width="22" height="22" color="#FF7A66"/>
  <!-- editor body -->
  <rect x="150" y="406" width="190" height="510" fill="#201D2E"/>
  <text x="168" y="436" font-size="12" font-weight="700" fill="#E7E2F0">Files</text><text x="222" y="436" font-size="12" fill="#8B84A0">Assets</text>
  <g font-size="12" font-family="monospace">
    <text x="166" y="468" fill="#8FB7E8" font-weight="700">PROJECT</text>
    <use href="#ic-folder" x="170" y="480" width="16" height="16" color="#8B84A0"/><text x="192" y="492" fill="#B7B0C6">src</text>
    <use href="#ic-folder" x="190" y="500" width="16" height="16" color="#8B84A0"/><text x="212" y="512" fill="#B7B0C6">scenes</text>
    <text x="216" y="532" fill="#B7B0C6">Boot.js</text>
    <rect x="184" y="540" width="140" height="20" rx="5" fill="#5DAEFF" opacity="0.16"/><text x="216" y="554" fill="#FFFFFF">Game.js</text>
    <use href="#ic-file" x="172" y="566" width="15" height="15" color="#8B84A0"/><text x="192" y="578" fill="#B7B0C6">main.js</text>
    <text x="192" y="600" fill="#B7B0C6">style.css</text>
  </g>
  <rect x="340" y="406" width="570" height="510" fill="#1B1828"/>
  <rect x="340" y="406" width="570" height="34" fill="#201D2E"/>
  <rect x="352" y="412" width="92" height="22" rx="6" fill="#1B1828"/><use href="#ic-file" x="358" y="413" width="16" height="16" color="#3DD9A9"/><text x="378" y="427" font-size="11.5" fill="#FFFFFF">Game.js</text>
  <use href="#ic-play" x="848" y="411" width="0" height="0"/>
  <g font-family="monospace" font-size="12.5">
    <g fill="#5A5470" text-anchor="end"><text x="372" y="468">1</text><text x="372" y="490">2</text><text x="372" y="512">3</text><text x="372" y="534">4</text><text x="372" y="556">5</text><text x="372" y="578">6</text><text x="372" y="600">7</text><text x="372" y="622">8</text></g>
    <text x="388" y="468"><tspan fill="#C879DF">class</tspan><tspan fill="#E6E1F0"> Game </tspan><tspan fill="#C879DF">extends</tspan><tspan fill="#5DAEFF"> Phaser</tspan><tspan fill="#E6E1F0">.Scene {</tspan></text>
    <text x="388" y="490" fill="#E6E1F0">  create() {</text>
    <text x="388" y="512" fill="#E6E1F0">    this.player = this.add.rectangle(30, H/2, 16, 110);</text>
    <text x="388" y="534" fill="#E6E1F0">    this.ball   = this.add.circle(W/2, H/2, 12, 0xffffff);</text>
    <text x="388" y="556" fill="#E6E1F0">    this.physics.add.existing(this.ball);</text>
    <text x="388" y="578" fill="#E6E1F0">    this.ball.body.setBounce(1, 1);</text>
    <text x="388" y="600" fill="#E6E1F0">  }</text>
    <text x="388" y="622" fill="#E6E1F0">}</text>
  </g>

  <!-- ===== Game Runner window (right) ===== -->
  <g filter="url(#win)"><rect x="1300" y="130" width="560" height="540" rx="16" fill="#242133" stroke="#46415C" stroke-width="1.5"/></g>
  <path d="M1300 146a16 16 0 0 1 16-16h528a16 16 0 0 1 16 16v30h-560z" fill="#2E2A40"/>
  <use href="#ic-game" x="1320" y="138" width="22" height="22" color="#FF9A88"/>
  <text x="1350" y="154" font-size="15" font-weight="700" fill="#E7E2F0">Game Runner</text>
  <use href="#ic-min" x="1770" y="138" width="22" height="22" color="#9B94AC"/><use href="#ic-max" x="1796" y="138" width="22" height="22" color="#9B94AC"/><use href="#ic-close" x="1822" y="138" width="22" height="22" color="#FF7A66"/>
  <!-- toolbar -->
  <rect x="1300" y="176" width="560" height="44" fill="#201D2E"/>
  <use href="#ic-play" x="1318" y="187" width="20" height="20" color="#3DD9A9"/>
  <use href="#ic-sound" x="1352" y="187" width="20" height="20" color="#B7B0C6"/>
  <use href="#ic-device" x="1386" y="187" width="20" height="20" color="#B7B0C6"/>
  <rect x="1416" y="186" width="220" height="24" rx="7" fill="#2E2A40" stroke="#46415C"/><text x="1430" y="203" font-size="12" fill="#B7B0C6">Original — 754 × 533</text>
  <use href="#ic-refresh" x="1648" y="187" width="20" height="20" color="#B7B0C6"/>
  <use href="#ic-term" x="1682" y="187" width="20" height="20" color="#B7B0C6"/>
  <!-- placeholder -->
  <rect x="1340" y="262" width="480" height="300" rx="14" fill="#1B1828" stroke="#46415C" stroke-width="2" stroke-dasharray="7 7"/>
  <use href="#ic-game" x="1556" y="330" width="48" height="48" color="#6E6786"/>
  <text x="1580" y="420" text-anchor="middle" font-size="16" font-weight="800" fill="#B7B0C6">Press ▶ to play</text>
  <text x="1580" y="446" text-anchor="middle" font-size="13" fill="#8B84A0">your game shows up here</text>
  <g transform="translate(1536,470)"><rect width="88" height="34" rx="10" fill="#2E2A40" stroke="#46415C"/><use href="#ic-play" x="14" y="7" width="20" height="20" color="#3DD9A9"/><text x="58" y="23" text-anchor="middle" font-size="13" font-weight="700" fill="#E7E2F0">Play</text></g>
  <!-- status -->
  <rect x="1300" y="624" width="560" height="46" rx="0" fill="#201D2E"/><path d="M1300 624h560v30a16 16 0 0 1-16 16h-528a16 16 0 0 1-16-16z" fill="#201D2E"/>
  <circle cx="1322" cy="647" r="5" fill="#8B84A0"/><text x="1336" y="652" font-size="12.5" font-weight="700" fill="#B7B0C6">Idle</text><text x="1820" y="652" text-anchor="end" font-size="12.5" fill="#8B84A0">754 × 533</text>

  <!-- ===== Chat window (front, center-top, focus) ===== -->
  <g filter="url(#win)"><rect x="600" y="70" width="660" height="610" rx="16" fill="#242133" stroke="#5DAEFF" stroke-opacity="0.45" stroke-width="2"/></g>
  <path d="M600 86a16 16 0 0 1 16-16h628a16 16 0 0 1 16 16v32H600z" fill="#2E2A40"/>
  <use href="#ic-chat" x="622" y="78" width="24" height="24" color="#5DAEFF"/>
  <text x="656" y="96" font-size="16" font-weight="800" fill="#FFFFFF">Chat</text>
  <use href="#ic-min" x="1168" y="78" width="22" height="22" color="#9B94AC"/><use href="#ic-max" x="1194" y="78" width="22" height="22" color="#9B94AC"/><use href="#ic-close" x="1220" y="78" width="22" height="22" color="#FF7A66"/>
  <!-- chat header -->
  <text x="624" y="156" font-size="14" font-weight="800" fill="#FFFFFF">✨ AI Helper</text>
  <rect x="724" y="142" width="78" height="20" rx="10" fill="#FFD43B"/><text x="763" y="157" text-anchor="middle" font-size="10.5" font-weight="800" fill="#1F1B2D">stub demo</text>
  <line x1="600" y1="178" x2="1260" y2="178" stroke="#3A3650"/>
  <!-- bubbles -->
  <rect x="900" y="206" width="336" height="40" rx="14" fill="url(#sky)"/><text x="1216" y="231" text-anchor="end" font-size="13.5" fill="#fff">make a pong game</text>
  <rect x="624" y="262" width="470" height="64" rx="14" fill="#2E2A40" stroke="#3A3650"/><text x="644" y="288" font-size="13.5" fill="#FFFFFF">Done! I built your Pong — open the</text><text x="644" y="308" font-size="13.5" fill="#FFFFFF">Game Runner and press play. ✨</text>
  <rect x="900" y="342" width="280" height="40" rx="14" fill="url(#sky)"/><text x="1160" y="367" text-anchor="end" font-size="13.5" fill="#fff">make the ball faster</text>
  <!-- prompt -->
  <rect x="624" y="600" width="612" height="52" rx="16" fill="#2E2A40" stroke="#46415C" stroke-width="2"/><text x="646" y="631" font-size="14" fill="#8B84A0">What should we build next?</text>
  <circle cx="1206" cy="626" r="17" fill="url(#sky)"/><use href="#ic-play" x="1198" y="618" width="16" height="16" color="#fff"/>

  <!-- ===== Taskbar ===== -->
  <rect x="0" y="944" width="1920" height="56" fill="#16121F"/><line x1="0" y1="944" x2="1920" y2="944" stroke="#46415C" stroke-width="1.5"/>
  <use href="#ic-grid" x="28" y="960" width="22" height="22" color="#3DD9A9"/><text x="58" y="978" font-size="15" font-weight="800" fill="#3DD9A9">playground</text>
  <!-- layout toggle -->
  <rect x="220" y="958" width="150" height="28" rx="14" fill="#201D2E" stroke="#46415C"/>
  <rect x="223" y="961" width="74" height="22" rx="11" fill="#5DAEFF"/><use href="#ic-grid" x="232" y="963" width="16" height="16" color="#0E0B16"/><text x="276" y="976" text-anchor="middle" font-size="11" font-weight="800" fill="#0E0B16">Win</text>
  <use href="#ic-split" x="306" y="963" width="16" height="16" color="#8B84A0"/><text x="346" y="976" text-anchor="middle" font-size="11" font-weight="700" fill="#8B84A0">Split</text>
  <!-- window buttons -->
  <g>
    <rect x="430" y="956" width="150" height="32" rx="9" fill="#5DAEFF" opacity="0.16"/><rect x="430" y="956" width="150" height="32" rx="9" fill="none" stroke="#5DAEFF" stroke-opacity="0.5"/><use href="#ic-chat" x="442" y="962" width="20" height="20" color="#5DAEFF"/><text x="470" y="977" font-size="12.5" font-weight="700" fill="#E7E2F0">Chat</text>
    <rect x="592" y="956" width="170" height="32" rx="9" fill="#221E30" stroke="#46415C"/><use href="#ic-code" x="604" y="962" width="20" height="20" color="#B7B0C6"/><text x="632" y="977" font-size="12.5" font-weight="600" fill="#B7B0C6">Code Editor</text>
    <rect x="774" y="956" width="170" height="32" rx="9" fill="#221E30" stroke="#46415C"/><use href="#ic-game" x="786" y="962" width="20" height="20" color="#B7B0C6"/><text x="814" y="977" font-size="12.5" font-weight="600" fill="#B7B0C6">Game Runner</text>
  </g>

  <!-- ===== annotation badges ===== -->
  <g font-weight="800" font-size="15" text-anchor="middle" filter="url(#bdg)">
    <g><circle cx="1244" cy="86" r="15" fill="#FF7A66" stroke="#fff" stroke-width="2.5"/><text x="1244" y="92" fill="#fff">1</text></g>
    <g><circle cx="930" cy="86" r="15" fill="#FF7A66" stroke="#fff" stroke-width="2.5"/><text x="930" y="92" fill="#fff">2</text></g>
    <g><circle cx="625" cy="510" r="15" fill="#FF7A66" stroke="#fff" stroke-width="2.5"/><text x="625" y="516" fill="#fff">3</text></g>
    <g><circle cx="66" cy="60" r="15" fill="#FF7A66" stroke="#fff" stroke-width="2.5"/><text x="66" y="66" fill="#fff">4</text></g>
    <g><circle cx="505" cy="972" r="15" fill="#FFD43B" stroke="#fff" stroke-width="2.5"/><text x="505" y="978" fill="#1F1B2D">5</text></g>
    <g><circle cx="1810" cy="148" r="15" fill="#FFD43B" stroke="#fff" stroke-width="2.5"/><text x="1810" y="154" fill="#1F1B2D">6</text></g>
    <g><circle cx="633" cy="89" r="15" fill="#FFD43B" stroke="#fff" stroke-width="2.5"/><text x="633" y="95" fill="#1F1B2D">7</text></g>
  </g>

  <!-- ===== legend ===== -->
  <rect x="0" y="1000" width="1920" height="240" fill="#16121F"/>
  <line x1="0" y1="1000" x2="1920" y2="1000" stroke="#46415C"/>
  <text x="48" y="1042" font-size="20" font-weight="800" fill="#FFFFFF">Annotations</text>
  <text x="220" y="1042" font-size="14" fill="#8B84A0">— Workspace, Window mode (revised): chat-centric, clearer windows, taskbar + desktop shortcuts</text>
  <g font-size="14">
    <g transform="translate(48,1070)">
      <g><circle cx="12" cy="8" r="12" fill="#FF7A66"/><text x="12" y="13" text-anchor="middle" font-size="12" font-weight="800" fill="#fff">1</text><text x="32" y="4" font-weight="800" fill="#fff">Higher-contrast windows</text><text x="32" y="24" fill="#B7B0C6">Raised surface + visible border + strong shadow — clearly above the desktop. Windows stack/overlap.</text></g>
      <g transform="translate(0,58)"><circle cx="12" cy="8" r="12" fill="#FF7A66"/><text x="12" y="13" text-anchor="middle" font-size="12" font-weight="800" fill="#fff">2</text><text x="32" y="4" font-weight="800" fill="#fff">Chat — center &amp; top (focus)</text><text x="32" y="24" fill="#B7B0C6">The primary surface, front-most. Game Runner on the right (focus). Code Editor lower-left.</text></g>
      <g transform="translate(0,116)"><circle cx="12" cy="8" r="12" fill="#FF7A66"/><text x="12" y="13" text-anchor="middle" font-size="12" font-weight="800" fill="#fff">3</text><text x="32" y="4" font-weight="800" fill="#fff">Wide Code Editor</text><text x="32" y="24" fill="#B7B0C6">Roomy enough to read code; peeks from the left/bottom so kids know it's there (secondary).</text></g>
    </g>
    <g transform="translate(700,1070)">
      <g><circle cx="12" cy="8" r="12" fill="#FF7A66"/><text x="12" y="13" text-anchor="middle" font-size="12" font-weight="800" fill="#fff">4</text><text x="32" y="4" font-weight="800" fill="#fff">Desktop shortcuts</text><text x="32" y="24" fill="#B7B0C6">Re-open a closed window by clicking its desktop icon.</text></g>
      <g transform="translate(0,58)"><circle cx="12" cy="8" r="12" fill="#FFD43B"/><text x="12" y="13" text-anchor="middle" font-size="12" font-weight="800" fill="#1F1B2D">5</text><text x="32" y="4" font-weight="800" fill="#fff">Taskbar (bottom)</text><text x="32" y="24" fill="#B7B0C6">Restore/switch windows; holds the layout toggle. Active window highlighted.</text></g>
      <g transform="translate(0,116)"><circle cx="12" cy="8" r="12" fill="#FFD43B"/><text x="12" y="13" text-anchor="middle" font-size="12" font-weight="800" fill="#1F1B2D">6</text><text x="32" y="4" font-weight="800" fill="#fff">Maximize = full screen</text><text x="32" y="24" fill="#B7B0C6">Fills the whole desktop above the taskbar (not half); switch windows via the taskbar.</text></g>
    </g>
    <g transform="translate(1352,1070)">
      <g><circle cx="12" cy="8" r="12" fill="#FFD43B"/><text x="12" y="13" text-anchor="middle" font-size="12" font-weight="800" fill="#1F1B2D">7</text><text x="32" y="4" font-weight="800" fill="#fff">Modern vector icons</text><text x="32" y="24" fill="#B7B0C6">Clean line icons for window controls, titles, toolbar &amp; toggle — no emoji.</text></g>
      <g transform="translate(0,58)">
        <rect x="0" y="-14" width="480" height="120" rx="14" fill="#201D2E" stroke="#46415C"/>
        <text x="16" y="6" font-size="13" font-weight="800" fill="#fff">Layout</text>
        <text x="16" y="30" font-size="12.5" fill="#B7B0C6">Code Editor — left / bottom (wide, secondary)</text>
        <text x="16" y="52" font-size="12.5" fill="#B7B0C6">Chat — center / top (front, focus)</text>
        <text x="16" y="74" font-size="12.5" fill="#B7B0C6">Game Runner — right (focus)</text>
      </g>
    </g>
  </g>
</svg>
